<svg width="180" height="180" viewBox="0 0 180 180" fill="none" xmlns="http://www.w3.org/2000/svg">
  <style>
    @media (prefers-color-scheme: light) {
      .background { fill: #1a1a2e; }
      .book { fill: #eab308; }
      .pages { fill: white; }
    }
    @media (prefers-color-scheme: dark) {
      .background { fill: #1a1a2e; }
      .book { fill: #eab308; }
      .pages { fill: white; }
    }
  </style>
  <rect class="background" width="180" height="180" rx="37" />
  <!-- Open Book Icon for LibraLink -->
  <g transform="translate(30, 45)">
    <!-- Left book cover -->
    <path class="book" d="M60 10 L60 80 Q30 75 10 85 L10 15 Q30 5 60 10 Z" />
    <!-- Right book cover -->
    <path class="book" d="M60 10 L60 80 Q90 75 110 85 L110 15 Q90 5 60 10 Z" />
    <!-- Left pages -->
    <path class="pages" d="M58 15 L58 75 Q35 70 18 78 L18 20 Q35 12 58 15 Z" />
    <!-- Right pages -->
    <path class="pages" d="M62 15 L62 75 Q85 70 102 78 L102 20 Q85 12 62 15 Z" />
    <!-- Spine -->
    <rect class="book" x="57" y="8" width="6" height="75" rx="2" />
  </g>
</svg>